<svg width="55" height="68" viewBox="0 0 55 68" fill="none" xmlns="http://www.w3.org/2000/svg">
<path fill-rule="evenodd" clip-rule="evenodd" d="M2 2V66H53V2H2ZM50.6846 63.6848H4.31383V4.31521H50.6846V63.6848Z" fill="#F58836" stroke="#F58836" stroke-width="3"/>
<path fill-rule="evenodd" clip-rule="evenodd" d="M34.9206 42.7994C35.9899 41.2951 36.5647 39.4928 36.5646 37.6442C36.5646 32.7184 32.5767 28.7107 27.6752 28.7107C22.7736 28.7107 18.785 32.7184 18.785 37.6442C18.785 39.5658 19.3984 41.3426 20.4305 42.8009L14.6379 51.1302C14.5068 51.3189 14.4354 51.5429 14.433 51.773C14.4305 52.0032 14.4972 52.2287 14.6243 52.4201C14.8843 52.811 15.3568 53.0007 15.8148 52.9009L20.2417 51.918L21.0454 56.075C21.0903 56.307 21.2056 56.5193 21.3754 56.6827C21.5453 56.846 21.7613 56.9525 21.9939 56.9874C22.2265 57.0224 22.4641 56.984 22.674 56.8777C22.884 56.7713 23.056 56.6022 23.1664 56.3935L27.6744 47.8661L32.1847 56.3935C32.2951 56.6022 32.4671 56.7713 32.677 56.8777C32.887 56.984 33.1246 57.0224 33.3572 56.9874C33.5898 56.9525 33.8058 56.846 33.9757 56.6827C34.1455 56.5193 34.2608 56.307 34.3056 56.075L35.1109 51.918L39.5318 52.9001C39.7554 52.9495 39.9887 52.9301 40.2012 52.8443C40.4137 52.7585 40.5955 52.6105 40.723 52.4194C40.8501 52.2279 40.9169 52.0025 40.9146 51.7724C40.9123 51.5423 40.841 51.3182 40.7102 51.1294L34.9206 42.7994ZM27.6744 30.9965C31.3218 30.9965 34.289 33.9786 34.289 37.6442C34.289 41.3075 31.3218 44.2874 27.6744 44.2874C24.027 44.2874 21.0591 41.3075 21.0591 37.6442C21.0599 33.9794 24.027 30.9965 27.6744 30.9965ZM22.6659 52.4689L22.2534 50.3317C22.2242 50.1822 22.1656 50.04 22.081 49.9135C21.9964 49.787 21.8875 49.6788 21.7607 49.5951C21.634 49.5115 21.4918 49.4541 21.3427 49.4263C21.1936 49.3985 21.0405 49.4009 20.8923 49.4334L18.1746 50.0368L22.0115 44.5198C23.1294 45.4522 24.4582 46.0943 25.8811 46.3895L22.6659 52.4689ZM34.4634 49.4342C34.3152 49.4014 34.162 49.3987 34.0128 49.4263C33.8636 49.4538 33.7214 49.5112 33.5946 49.5948C33.4678 49.6784 33.3589 49.7867 33.2743 49.9133C33.1898 50.0398 33.1313 50.1821 33.1022 50.3317L32.6875 52.4719L29.4708 46.3903C30.8937 46.0949 32.2226 45.4526 33.3403 44.5198L37.175 50.0376L34.4634 49.4342ZM14.1374 19.2858H40.8626C41.1642 19.2858 41.4535 19.1653 41.6669 18.951C41.8802 18.7367 42 18.446 42 18.1429C42 17.8398 41.8802 17.5491 41.6669 17.3347C41.4535 17.1204 41.1642 17 40.8626 17H14.1374C13.8358 17 13.5465 17.1204 13.3331 17.3347C13.1198 17.5491 13 17.8398 13 18.1429C13 18.446 13.1198 18.7367 13.3331 18.951C13.5465 19.1653 13.8358 19.2858 14.1374 19.2858Z" fill="#F58836" stroke="#F58836" stroke-width="3"/>
</svg>
