<svg width="38" height="68" viewBox="0 0 38 68" fill="none" xmlns="http://www.w3.org/2000/svg">
<path fill-rule="evenodd" clip-rule="evenodd" d="M22.356 39.6289V8.39554C22.356 4.86926 19.4874 2 15.9618 2C12.4336 2 9.56296 4.86926 9.56296 8.39554V39.6396C4.95122 42.0231 2 46.8174 2 52.0402C2 59.7377 8.26293 66 15.9618 66C23.6574 66 29.919 59.7377 29.919 52.0402C29.9222 49.4759 29.2179 46.9604 27.8835 44.7706C26.5491 42.5808 24.6365 40.8016 22.356 39.6289ZM15.9618 64.001C9.36573 64.001 3.99902 58.6356 3.99902 52.0402C3.99902 47.4271 6.68371 43.2018 10.8463 41.2295C11.0526 41.169 11.2337 41.0435 11.3627 40.8717C11.4917 40.6998 11.5616 40.4908 11.562 40.2759V8.39487C11.562 5.97072 13.5357 3.99835 15.9618 3.99835C17.1273 3.99977 18.2446 4.46346 19.0686 5.2877C19.8926 6.11194 20.356 7.2294 20.357 8.39487V39.3424C20.2388 39.4414 20.1456 39.567 20.0851 39.7089C20.034 39.8298 20.0072 39.9595 20.0062 40.0908C20.0052 40.2221 20.03 40.3522 20.0794 40.4739C20.1287 40.5955 20.2015 40.7063 20.2936 40.7998C20.3857 40.8933 20.4953 40.9678 20.6162 41.0189C20.6888 41.0495 20.7581 41.0869 20.8301 41.1188C20.8934 41.1582 20.9614 41.1888 21.0333 41.2135C23.0928 42.1752 24.8349 43.7048 26.0548 45.6226C27.2748 47.5404 27.9218 49.7666 27.92 52.0395C27.92 58.6356 22.5553 64.001 15.9618 64.001Z" fill="#F58836" stroke="#F58836" stroke-width="3"/>
<path fill-rule="evenodd" clip-rule="evenodd" d="M16.9561 46.0438V12.1364C16.9561 11.8713 16.8508 11.617 16.6633 11.4296C16.4759 11.2422 16.2217 11.1368 15.9566 11.1368C15.6915 11.1368 15.4373 11.2422 15.2498 11.4296C15.0624 11.617 14.9571 11.8713 14.9571 12.1364V46.0438C11.7986 46.5282 9.36914 49.2568 9.36914 52.5499C9.36914 56.1841 12.3244 59.14 15.9566 59.14C19.5921 59.14 22.5494 56.1835 22.5494 52.5499C22.5487 49.2562 20.1172 46.5275 16.9561 46.0438ZM15.9566 57.141C13.4265 57.141 11.3682 55.0813 11.3682 52.5499C11.3682 50.0185 13.4265 47.9588 15.9566 47.9588C18.4893 47.9588 20.5503 50.0185 20.5503 52.5499C20.5503 55.0813 18.4893 57.141 15.9566 57.141ZM25.5579 12.5242H35.9101C36.1752 12.5242 36.4295 12.4189 36.6169 12.2314C36.8043 12.044 36.9097 11.7897 36.9097 11.5247C36.9097 11.2596 36.8043 11.0053 36.6169 10.8179C36.4295 10.6305 36.1752 10.5251 35.9101 10.5251H25.5579C25.2928 10.5251 25.0386 10.6305 24.8511 10.8179C24.6637 11.0053 24.5584 11.2596 24.5584 11.5247C24.5584 11.7897 24.6637 12.044 24.8511 12.2314C25.0386 12.4189 25.2928 12.5242 25.5579 12.5242ZM25.5579 22.9904H30.7347C30.9998 22.9904 31.254 22.8851 31.4414 22.6976C31.6289 22.5102 31.7342 22.256 31.7342 21.9909C31.7342 21.7258 31.6289 21.4715 31.4414 21.2841C31.254 21.0967 30.9998 20.9914 30.7347 20.9914H25.5579C25.2928 20.9914 25.0386 21.0967 24.8511 21.2841C24.6637 21.4715 24.5584 21.7258 24.5584 21.9909C24.5584 22.256 24.6637 22.5102 24.8511 22.6976C25.0386 22.8851 25.2928 22.9904 25.5579 22.9904ZM35.9101 32.3125H25.5579C25.4266 32.3125 25.2966 32.3383 25.1754 32.3886C25.0541 32.4388 24.9439 32.5124 24.8511 32.6052C24.7583 32.698 24.6847 32.8082 24.6345 32.9295C24.5842 33.0508 24.5584 33.1807 24.5584 33.312C24.5584 33.4432 24.5842 33.5732 24.6345 33.6945C24.6847 33.8158 24.7583 33.9259 24.8511 34.0187C24.9439 34.1116 25.0541 34.1852 25.1754 34.2354C25.2966 34.2856 25.4266 34.3115 25.5579 34.3115H35.9101C36.0414 34.3115 36.1714 34.2856 36.2926 34.2354C36.4139 34.1852 36.5241 34.1116 36.6169 34.0187C36.7097 33.9259 36.7833 33.8158 36.8336 33.6945C36.8838 33.5732 36.9097 33.4432 36.9097 33.312C36.9097 33.1807 36.8838 33.0508 36.8336 32.9295C36.7833 32.8082 36.7097 32.698 36.6169 32.6052C36.5241 32.5124 36.4139 32.4388 36.2926 32.3886C36.1714 32.3383 36.0414 32.3125 35.9101 32.3125Z" fill="#F58836" stroke="#F58836"/>
</svg>
