<svg width="73" height="68" viewBox="0 0 73 68" fill="none" xmlns="http://www.w3.org/2000/svg">
<path fill-rule="evenodd" clip-rule="evenodd" d="M70.2331 30.8994L36.7536 2.28798C36.5354 2.10092 36.2571 1.99869 35.9697 2.00001C35.6822 2.00133 35.4049 2.10611 35.1884 2.29517L2.42639 30.8044C2.30474 30.9068 2.20471 31.0325 2.13212 31.174C2.05952 31.3155 2.01582 31.47 2.00356 31.6286C1.99131 31.7872 2.01074 31.9466 2.06072 32.0976C2.1107 32.2486 2.19024 32.3881 2.29469 32.5081C2.39915 32.628 2.52643 32.7259 2.66912 32.7962C2.81182 32.8664 2.96707 32.9076 3.12582 32.9172C3.28457 32.9268 3.44366 32.9048 3.5938 32.8523C3.74394 32.7998 3.88214 32.718 4.00034 32.6116L11.0623 26.466V64.8016C11.0623 65.1194 11.1886 65.4242 11.4133 65.649C11.6381 65.8737 11.9429 66 12.2608 66H59.1843C59.5021 66 59.807 65.8737 60.0317 65.649C60.2565 65.4242 60.3827 65.1194 60.3827 64.8016V25.6335L68.6759 32.721C68.9175 32.9275 69.2312 33.0296 69.548 33.0048C69.8648 32.98 70.1588 32.8304 70.3653 32.5888C70.5718 32.3473 70.6739 32.0336 70.6491 31.7167C70.6243 31.3999 70.4746 31.1059 70.2331 30.8994ZM57.9859 63.6039H13.4592V24.3815L35.9826 4.78233L57.9867 23.5866L57.9859 63.6039Z" fill="#F58836" stroke="#F58836" stroke-width="3"/>
<path fill-rule="evenodd" clip-rule="evenodd" d="M34.7472 24.2512V36.7513H22.2512C21.9193 36.7513 21.6011 36.8831 21.3665 37.1178C21.1318 37.3524 21 37.6707 21 38.0025C21 38.3343 21.1318 38.6526 21.3665 38.8872C21.6011 39.1219 21.9193 39.2537 22.2512 39.2537H34.7472V51.7488C34.7472 52.0807 34.879 52.3989 35.1136 52.6335C35.3483 52.8682 35.6665 53 35.9983 53C36.3302 53 36.6484 52.8682 36.8831 52.6335C37.1177 52.3989 37.2495 52.0807 37.2495 51.7488V39.2537H49.7455C50.0773 39.2537 50.3956 39.1219 50.6302 38.8872C50.8648 38.6526 50.9967 38.3343 50.9967 38.0025C50.9967 37.6707 50.8648 37.3524 50.6302 37.1178C50.3956 36.8831 50.0773 36.7513 49.7455 36.7513H37.2495V24.2512C37.2495 23.9193 37.1177 23.6011 36.8831 23.3665C36.6484 23.1318 36.3302 23 35.9983 23C35.6665 23 35.3483 23.1318 35.1136 23.3665C34.879 23.6011 34.7472 23.9193 34.7472 24.2512Z" fill="#F58836" stroke="#F58836" stroke-width="3"/>
</svg>
