<svg width="60" height="68" viewBox="0 0 60 68" fill="none" xmlns="http://www.w3.org/2000/svg">
<path fill-rule="evenodd" clip-rule="evenodd" d="M54.0337 36.9221L38.6533 34.6874L31.7758 20.752C31.6924 20.582 31.5631 20.4389 31.4025 20.3388C31.2419 20.2386 31.0564 20.1856 30.8672 20.1856C30.6779 20.1856 30.4925 20.2386 30.3318 20.3388C30.1712 20.4389 30.0419 20.582 29.9586 20.752L23.0817 34.6874L7.70131 36.9221C7.51415 36.9493 7.33834 37.0283 7.19375 37.1502C7.04917 37.2721 6.94159 37.432 6.88318 37.6119C6.82476 37.7918 6.81786 37.9844 6.86323 38.168C6.90861 38.3516 7.00446 38.5188 7.13994 38.6508L18.2679 49.4977L15.6415 64.8146C15.6093 65.0011 15.63 65.1928 15.7013 65.3681C15.7725 65.5434 15.8913 65.6952 16.0444 65.8064C16.1974 65.9176 16.3785 65.9838 16.5672 65.9974C16.7559 66.011 16.9447 65.9715 17.1121 65.8833L30.8665 58.6511L44.623 65.8833C44.7904 65.9711 44.979 66.0103 45.1676 65.9967C45.3561 65.9831 45.5372 65.9172 45.6903 65.8063C46.0024 65.5793 46.1584 65.195 46.0936 64.8146L43.4644 49.4977L54.5938 38.6508C54.729 38.5188 54.8246 38.3517 54.8699 38.1683C54.9152 37.9848 54.9083 37.7924 54.8501 37.6127C54.7919 37.4329 54.6846 37.273 54.5404 37.151C54.3961 37.029 54.2206 36.9497 54.0337 36.9221ZM41.6702 48.4182C41.5525 48.5329 41.4644 48.6745 41.4135 48.8307C41.3627 48.987 41.3506 49.1533 41.3784 49.3153L43.7502 63.1333L31.3394 56.609C31.1939 56.5328 31.0321 56.493 30.8679 56.493C30.7036 56.493 30.5418 56.5328 30.3963 56.609L17.9876 63.1333L20.3566 49.3153C20.3844 49.1533 20.3723 48.987 20.3215 48.8307C20.2707 48.6745 20.1826 48.5329 20.0648 48.4182L10.0265 38.6332L23.9018 36.6174C24.0643 36.5938 24.2186 36.531 24.3515 36.4345C24.4843 36.338 24.5918 36.2107 24.6645 36.0635L30.8685 23.4919L37.0733 36.0635C37.146 36.2107 37.2534 36.338 37.3863 36.4345C37.5191 36.531 37.6734 36.5938 37.8359 36.6174L51.7113 38.6332L41.6702 48.4182ZM13.6642 25.8988C13.8944 25.8982 14.1175 25.8192 14.2969 25.6748C14.4762 25.5305 14.6012 25.3295 14.6511 25.1047C14.701 24.88 14.6729 24.6449 14.5715 24.4383C14.4701 24.2316 14.3014 24.0656 14.0932 23.9675L3.4421 18.9909C3.19853 18.8772 2.91978 18.8649 2.66717 18.9568C2.41456 19.0486 2.20878 19.2371 2.0951 19.4806C1.98142 19.7242 1.96916 20.003 2.061 20.2556C2.15285 20.5082 2.34129 20.714 2.58486 20.8276L13.2359 25.8043C13.3744 25.8684 13.5203 25.8988 13.6642 25.8988ZM58.2673 19.48C58.1531 19.2369 57.9473 19.0489 57.6948 18.9571C57.4424 18.8653 57.1639 18.8772 56.9203 18.9902L46.2692 23.9668C46.0609 24.0649 45.8922 24.2309 45.7908 24.4376C45.6894 24.6443 45.6614 24.8793 45.7113 25.104C45.7612 25.3288 45.8861 25.5298 46.0655 25.6742C46.2448 25.8185 46.468 25.8975 46.6982 25.8982C46.8421 25.8982 46.988 25.8678 47.1265 25.8029L57.7775 20.8263C57.8982 20.7702 58.0066 20.6908 58.0965 20.5927C58.1864 20.4946 58.2562 20.3798 58.3017 20.2547C58.3471 20.1297 58.3675 19.9969 58.3616 19.8639C58.3557 19.731 58.3237 19.6005 58.2673 19.48ZM30.8679 15.749C31.1366 15.749 31.3943 15.6423 31.5844 15.4522C31.7744 15.2622 31.8812 15.0045 31.8812 14.7357V3.01329C31.8812 2.74455 31.7744 2.48682 31.5844 2.29679C31.3943 2.10676 31.1366 2 30.8679 2C30.5991 2 30.3414 2.10676 30.1514 2.29679C29.9613 2.48682 29.8546 2.74455 29.8546 3.01329V14.7357C29.8546 15.0045 29.9613 15.2622 30.1514 15.4522C30.3414 15.6423 30.5991 15.749 30.8679 15.749Z" fill="#F58836" stroke="#F58836" stroke-width="3"/>
</svg>
