<svg width="59" height="68" viewBox="0 0 59 68" fill="none" xmlns="http://www.w3.org/2000/svg">
<path fill-rule="evenodd" clip-rule="evenodd" d="M40.8108 16.116L42.9681 6.25708C43.0148 6.04934 42.999 5.83243 42.9226 5.63367C42.8462 5.43491 42.7128 5.2632 42.539 5.14017C42.3652 5.01714 42.1589 4.94829 41.9461 4.9423C41.7332 4.93632 41.5234 4.99345 41.3429 5.10652C41.3429 5.10652 39.1065 6.46562 34.6984 6.46562C32.6993 6.46562 31.4841 5.56674 30.0818 4.52405C28.4926 3.33753 26.6877 2 23.6099 2C17.742 2 15.8005 5.3582 15.6998 5.50202C15.5731 5.73217 15.5347 6.00066 15.5919 6.25708L17.7492 16.116C14.8584 19.8193 -4.85212 45.4625 4.4962 57.0544C11.6872 66 22.6104 65.9928 29.0895 66H29.751C36.2805 66 47.0095 65.8993 54.1286 57.0544C63.4625 45.4625 43.7519 19.8193 40.8108 16.116ZM52.4531 55.6665C45.9811 63.7133 35.9137 63.8067 29.7438 63.8067H29.0895C22.9699 63.8067 12.7227 63.8067 6.16451 55.6665C1.67013 50.1222 5.51732 40.0189 9.52991 32.5618C12.5113 27.1315 15.9414 21.96 19.7843 17.1011C19.8867 16.975 19.9593 16.8273 19.9967 16.6692C20.034 16.511 20.0352 16.3465 20 16.1879L17.8427 6.30022C18.3892 5.66742 20.0432 4.19326 23.5955 4.19326C25.9542 4.19326 27.3277 5.21438 28.7802 6.29303C30.2328 7.37169 31.9659 8.65888 34.6841 8.65888C36.6315 8.68429 38.5713 8.4127 40.4369 7.85348L38.596 16.1951C38.5608 16.3537 38.562 16.5182 38.5993 16.6764C38.6367 16.8345 38.7093 16.9822 38.8117 17.1083C42.6571 21.9456 46.0919 27.0955 49.0805 32.5043C53.0859 40.0045 56.9474 50.1151 52.4531 55.7025V55.6665Z" fill="#F58836" stroke="#F58836" stroke-width="3"/>
<path fill-rule="evenodd" clip-rule="evenodd" d="M35.0571 37.2359C35.0571 37.522 35.1707 37.7963 35.373 37.9986C35.5753 38.2009 35.8497 38.3145 36.1358 38.3145C36.4218 38.3145 36.6962 38.2009 36.8985 37.9986C37.1008 37.7963 37.2144 37.522 37.2144 37.2359C37.2144 33.9783 34.3955 31.2889 30.7425 30.8359V29.3258C30.7425 29.0397 30.6289 28.7653 30.4266 28.563C30.2243 28.3608 29.9499 28.2471 29.6638 28.2471C29.3778 28.2471 29.1034 28.3608 28.9011 28.563C28.6988 28.7653 28.5852 29.0397 28.5852 29.3258V30.8359C24.9322 31.2889 22.1133 33.9783 22.1133 37.2359C22.1133 40.4934 24.9322 43.1757 28.5852 43.6287V52.2579C26.1259 51.8552 24.2706 50.1006 24.2706 48.0296C24.2706 47.7435 24.1569 47.4692 23.9547 47.2669C23.7524 47.0646 23.478 46.9509 23.1919 46.9509C22.9059 46.9509 22.6315 47.0646 22.4292 47.2669C22.2269 47.4692 22.1133 47.7435 22.1133 48.0296C22.1133 51.2871 24.9322 53.9837 28.5852 54.4296V55.9397C28.5852 56.2258 28.6988 56.5001 28.9011 56.7024C29.1034 56.9047 29.3778 57.0184 29.6638 57.0184C29.9499 57.0184 30.2243 56.9047 30.4266 56.7024C30.6289 56.5001 30.7425 56.2258 30.7425 55.9397V54.4224C34.3955 53.9694 37.2144 51.2727 37.2144 48.0224C37.2144 44.7721 34.3955 42.0754 30.7425 41.6296V33.0004C33.2018 33.4103 35.0571 35.1505 35.0571 37.2359ZM24.2706 37.2359C24.2706 35.1505 26.1259 33.4103 28.5852 33.0076V41.4642C26.1259 41.0615 24.2706 39.3213 24.2706 37.2359ZM35.0571 48.0224C35.0571 50.1078 33.2018 51.8552 30.7425 52.2507V43.7941C33.2018 44.1968 35.0571 45.937 35.0571 48.0152V48.0224ZM22.8899 17.777C24.984 18.3186 27.1416 18.575 29.3043 18.5392C31.467 18.575 33.6246 18.3186 35.7187 17.777C35.8547 17.7373 35.9815 17.6713 36.092 17.5826C36.2024 17.4939 36.2943 17.3843 36.3624 17.2601C36.4305 17.1359 36.4735 16.9995 36.4889 16.8587C36.5043 16.7179 36.4918 16.5755 36.4522 16.4395C36.4125 16.3035 36.3464 16.1766 36.2578 16.0662C36.1691 15.9557 36.0595 15.8638 35.9353 15.7957C35.8111 15.7276 35.6747 15.6846 35.5339 15.6692C35.3931 15.6538 35.2506 15.6663 35.1146 15.706C33.2162 16.1869 31.2624 16.4142 29.3043 16.3819C27.3462 16.4142 25.3924 16.1869 23.494 15.706C23.2193 15.6259 22.9241 15.6582 22.6733 15.7957C22.4224 15.9333 22.2365 16.1648 22.1564 16.4395C22.0763 16.7141 22.1086 17.0093 22.2462 17.2601C22.3837 17.511 22.6153 17.6969 22.8899 17.777Z" fill="#F58836" stroke="#F58836" stroke-width="3"/>
</svg>
