<svg width="68" height="68" viewBox="0 0 68 68" fill="none" xmlns="http://www.w3.org/2000/svg">
<path fill-rule="evenodd" clip-rule="evenodd" d="M58.0224 34.0002L65.4523 26.5702C65.5714 26.4552 65.6663 26.3177 65.7317 26.1655C65.797 26.0134 65.8314 25.8498 65.8329 25.6843C65.8343 25.5187 65.8028 25.3546 65.7401 25.2013C65.6774 25.0481 65.5848 24.9089 65.4677 24.7919C65.3507 24.6748 65.2115 24.5822 65.0583 24.5195C64.905 24.4568 64.7409 24.4253 64.5753 24.4267C64.4098 24.4282 64.2462 24.4626 64.0941 24.5279C63.9419 24.5932 63.8044 24.6882 63.6894 24.8073L56.2594 32.2372L48.8295 24.8073C48.7145 24.6882 48.5769 24.5932 48.4248 24.5279C48.2727 24.4626 48.1091 24.4282 47.9436 24.4267C47.778 24.4253 47.6138 24.4568 47.4606 24.5195C47.3074 24.5822 47.1682 24.6748 47.0511 24.7919C46.9341 24.9089 46.8415 25.0481 46.7788 25.2013C46.7161 25.3546 46.6846 25.5187 46.686 25.6843C46.6874 25.8498 46.7218 26.0134 46.7872 26.1655C46.8525 26.3177 46.9475 26.4552 47.0666 26.5702L54.4965 34.0002L47.0666 41.4301C46.8328 41.664 46.7015 41.9811 46.7016 42.3118C46.7017 42.6425 46.8331 42.9596 47.067 43.1934C47.3009 43.4272 47.6181 43.5585 47.9488 43.5584C48.2795 43.5583 48.5966 43.4269 48.8303 43.193L56.2603 35.7631L63.6902 43.193C63.9337 43.4366 64.2529 43.5579 64.5721 43.5579C64.8912 43.5579 65.2104 43.4366 65.4539 43.193C65.6877 42.9592 65.819 42.6421 65.819 42.3115C65.819 41.9809 65.6877 41.6639 65.4539 41.4301L58.0224 34.0002ZM38.9634 2.13188C38.7563 2.02823 38.5245 1.98429 38.2939 2.00499C38.0632 2.02569 37.8429 2.11021 37.6576 2.24908L15.6995 18.7006H3.24677C3.08304 18.7006 2.92092 18.7329 2.76965 18.7955C2.61839 18.8582 2.48094 18.95 2.36517 19.0658C2.2494 19.1816 2.15756 19.319 2.09491 19.4703C2.03225 19.6215 2 19.7837 2 19.9474V48.1801C2 48.5108 2.13136 48.8279 2.36517 49.0617C2.59899 49.2955 2.91611 49.4269 3.24677 49.4269H15.702L37.6609 65.7546C37.8465 65.8921 38.0666 65.9755 38.2967 65.9954C38.5269 66.0152 38.758 65.9708 38.9644 65.8671C39.1708 65.7633 39.3443 65.6043 39.4656 65.4078C39.587 65.2112 39.6514 64.9848 39.6516 64.7538V3.2465C39.6518 3.01511 39.5875 2.78825 39.4659 2.59137C39.3444 2.39449 39.1704 2.23538 38.9634 2.13188ZM37.1589 62.2736L16.859 47.1794C16.6438 47.0197 16.383 46.9335 16.1151 46.9333H4.49354V21.1942H16.1151C16.3845 21.1942 16.6466 21.107 16.8623 20.9456L37.1581 5.73921L37.1589 62.2736Z" fill="#F58836" stroke="#F58836" stroke-width="3"/>
</svg>
