<svg width="66" height="68" viewBox="0 0 66 68" fill="none" xmlns="http://www.w3.org/2000/svg">
<path fill-rule="evenodd" clip-rule="evenodd" d="M44.5383 63.7411H11.7855V28.353L31.0607 11.7884L50.1854 27.9163V34.753C50.1854 35.0525 50.3044 35.3398 50.5162 35.5516C50.728 35.7634 51.0152 35.8824 51.3148 35.8824C51.6143 35.8824 51.9016 35.7634 52.1134 35.5516C52.3252 35.3398 52.4442 35.0525 52.4442 34.753V29.8137L58.8667 35.2349C59.0954 35.4286 59.3916 35.5235 59.6903 35.4988C59.9889 35.4741 60.2655 35.3318 60.4592 35.1031C60.6529 34.8745 60.7478 34.5783 60.7231 34.2796C60.6984 33.981 60.5561 33.7044 60.3274 33.5107L31.7836 9.41664C31.579 9.24166 31.3186 9.14551 31.0494 9.14551C30.7802 9.14551 30.5199 9.24166 30.3153 9.41664L2.38885 33.4354C2.1612 33.6351 2.02221 33.917 2.00244 34.2192C1.98267 34.5214 2.08375 34.819 2.28344 35.0467C2.48313 35.2743 2.76508 35.4133 3.06725 35.4331C3.36943 35.4528 3.66708 35.3518 3.89473 35.1521L9.52671 30.2806V64.8705C9.52671 65.1701 9.6457 65.4573 9.8575 65.6692C10.0693 65.881 10.3566 65.9999 10.6561 65.9999H44.5383C44.8379 65.9999 45.1251 65.881 45.3369 65.6692C45.5487 65.4573 45.6677 65.1701 45.6677 64.8705C45.6677 64.571 45.5487 64.2837 45.3369 64.0719C45.1251 63.8601 44.8379 63.7411 44.5383 63.7411Z" fill="#F58836" stroke="#F58836" stroke-width="3"/>
<path fill-rule="evenodd" clip-rule="evenodd" d="M62.9858 51.1896C61.605 51.2025 60.236 50.9341 58.9622 50.4008C57.6885 49.8674 56.5367 49.0803 55.5769 48.0875C53.7222 46.1955 52.6103 43.6993 52.4447 41.055V40.6108C52.4413 40.4844 52.4158 40.3595 52.3694 40.2418C52.3283 39.9731 52.1928 39.7277 51.9872 39.5497C51.7817 39.3718 51.5194 39.2728 51.2475 39.2706C50.9533 39.2784 50.6737 39.4009 50.4683 39.6118C50.263 39.8228 50.1481 40.1056 50.1482 40.4V41.0625C49.9525 46.5816 45.1186 51.0616 39.1478 51.1218H38.8918C38.5923 51.1218 38.305 51.2408 38.0932 51.4526C37.8814 51.6644 37.7624 51.9517 37.7624 52.2512C37.7624 52.5507 37.8814 52.838 38.0932 53.0498C38.305 53.2616 38.5923 53.3806 38.8918 53.3806C41.7886 53.4091 44.5608 54.5623 46.6232 56.5966C48.6856 58.6309 49.8767 61.3871 49.945 64.2832C49.9776 64.6151 50.1195 64.9268 50.3485 65.1694C50.5774 65.4119 50.8804 65.5716 51.2099 65.6234C51.5094 65.6234 51.7967 65.5044 52.0085 65.2926C52.2203 65.0808 52.3393 64.7935 52.3393 64.494C52.2791 58.4705 56.9623 53.5161 62.6997 53.4484H62.9858C63.2854 53.4484 63.5727 53.3294 63.7845 53.1176C63.9963 52.9058 64.1152 52.6185 64.1152 52.319C64.1152 52.0194 63.9963 51.7322 63.7845 51.5204C63.5727 51.3086 63.2854 51.1896 62.9858 51.1896ZM51.112 59.2234C49.7674 56.1893 47.3562 53.754 44.3356 52.3792C47.4002 51.1494 49.8895 48.8108 51.3078 45.8286C51.9534 47.2556 52.8483 48.556 53.9506 49.6686C55.0347 50.7688 56.3105 51.6618 57.7153 52.3039C54.7173 53.6909 52.3573 56.1639 51.112 59.2234ZM6.89195 11.3064H6.96724C8.55275 11.3447 10.0627 11.9915 11.1842 13.113C12.3056 14.2344 12.9525 15.7444 12.9907 17.3299C13.0145 17.647 13.1503 17.9453 13.3737 18.1715C13.5972 18.3977 13.8938 18.5371 14.2105 18.5648C14.3588 18.5628 14.5053 18.5316 14.6416 18.473C14.7779 18.4145 14.9013 18.3296 15.0047 18.2233C15.1082 18.1171 15.1897 17.9914 15.2447 17.8537C15.2996 17.7159 15.3268 17.5686 15.3249 17.4203C15.2781 15.8601 15.8504 14.3447 16.9168 13.205C17.9832 12.0652 19.4572 11.3935 21.0171 11.3365H21.1978C21.4973 11.3365 21.7846 11.2176 21.9964 11.0058C22.2082 10.7939 22.3272 10.5067 22.3272 10.2071C22.3272 9.9076 22.2082 9.62034 21.9964 9.40853C21.7846 9.19673 21.4973 9.07773 21.1978 9.07773C20.4393 9.09047 19.6863 8.94583 18.9865 8.65295C18.2867 8.36007 17.6552 7.9253 17.1319 7.37609C16.1098 6.33507 15.4953 4.96178 15.4001 3.50599V3.24246C15.3978 3.13507 15.3801 3.02857 15.3474 2.92623C15.3026 2.66437 15.1657 2.42714 14.9613 2.25733C14.757 2.08752 14.4987 1.9963 14.2331 2.00011C14.0848 2.00208 13.9383 2.03324 13.802 2.09182C13.6657 2.1504 13.5423 2.23525 13.4389 2.34153C13.3354 2.44781 13.2539 2.57343 13.1989 2.71121C13.144 2.849 13.1168 2.99626 13.1187 3.14458V3.53611C12.9999 5.05578 12.3043 6.47245 11.1746 7.49579C10.0449 8.51913 8.56652 9.07164 7.04253 9.04009H6.86183C6.56229 9.04009 6.27502 9.15908 6.06322 9.37088C5.85141 9.58269 5.73242 9.86996 5.73242 10.1695C5.73242 10.469 5.85141 10.7563 6.06322 10.9681C6.27502 11.1799 6.56229 11.2989 6.86183 11.2989L6.89195 11.3064ZM14.2632 7.31586C14.6075 7.91253 15.0248 8.46392 15.5056 8.95726C15.9695 9.43357 16.4905 9.85084 17.0566 10.1996C15.8277 10.9563 14.82 12.0237 14.1352 13.2942C13.7491 12.6291 13.2756 12.0188 12.7272 11.4796C12.2513 11.0204 11.7231 10.6186 11.1536 10.2824C12.4331 9.58442 13.5058 8.56111 14.2632 7.31586ZM25.7154 31.3647C25.4159 31.3647 25.1286 31.4837 24.9168 31.6955C24.705 31.9073 24.586 32.1946 24.586 32.4941V44.5411C24.586 44.8407 24.705 45.1279 24.9168 45.3397C25.1286 45.5515 25.4159 45.6705 25.7154 45.6705H37.7624C38.062 45.6705 38.3492 45.5515 38.561 45.3397C38.7728 45.1279 38.8918 44.8407 38.8918 44.5411V32.4941C38.8918 32.1946 38.7728 31.9073 38.561 31.6955C38.3492 31.4837 38.062 31.3647 37.7624 31.3647H25.7154ZM36.633 43.4117H26.8448V33.6235H36.633V43.4117Z" fill="#F58836" stroke="#F58836" stroke-width="3"/>
</svg>
