<svg width="68" height="68" viewBox="0 0 68 68" fill="none" xmlns="http://www.w3.org/2000/svg">
<path fill-rule="evenodd" clip-rule="evenodd" d="M34.0001 8.12842C19.7344 8.12842 8.12891 19.7347 8.12891 33.9997C8.12891 48.2646 19.7352 59.8709 34.0001 59.8709C48.2659 59.8709 59.8722 48.2646 59.8722 33.9997C59.8722 19.7347 48.2659 8.12842 34.0001 8.12842ZM34.0001 57.0977C21.2637 57.0977 10.9013 46.7362 10.9013 33.9997C10.9013 21.2632 21.2637 10.9008 34.0001 10.9008C46.7366 10.9008 57.0982 21.2632 57.0982 33.9997C57.0982 46.7362 46.7366 57.0977 34.0001 57.0977Z" fill="#F58836" stroke="#F58836"/>
<path fill-rule="evenodd" clip-rule="evenodd" d="M40.537 29.7964L34.9568 35.3766V15.5284C34.9483 15.1663 34.7984 14.8219 34.5393 14.5688C34.2802 14.3158 33.9324 14.1741 33.5702 14.1741C33.208 14.1741 32.8602 14.3158 32.6011 14.5688C32.342 14.8219 32.1921 15.1663 32.1836 15.5284V38.7233C32.1836 38.8148 32.1928 38.9063 32.2113 38.9963C32.219 39.0355 32.2336 39.0716 32.2451 39.1101C32.2589 39.1585 32.2705 39.2077 32.2905 39.2554C32.3097 39.3015 32.3358 39.343 32.3597 39.3868C32.3789 39.423 32.395 39.4599 32.4181 39.4945C32.5196 39.6467 32.651 39.7774 32.8033 39.8797C32.8317 39.8989 32.8625 39.9112 32.8917 39.9273C32.9409 39.955 32.9886 39.9842 33.0416 40.0065C33.0831 40.0234 33.127 40.0334 33.1692 40.0465C33.2131 40.0596 33.2546 40.0765 33.2999 40.0849C33.4785 40.1219 33.6627 40.1219 33.8412 40.0849C33.8866 40.0757 33.9288 40.0596 33.9727 40.0457C34.015 40.0326 34.058 40.0234 34.0995 40.0065C34.1533 39.9842 34.2026 39.9542 34.2525 39.9258C34.281 39.9096 34.3102 39.8981 34.3379 39.8797C34.4154 39.8287 34.4873 39.7697 34.5524 39.7036L42.4983 31.7577C42.627 31.6289 42.7292 31.476 42.7989 31.3078C42.8686 31.1395 42.9045 30.9592 42.9045 30.7771C42.9045 30.5949 42.8686 30.4146 42.7989 30.2463C42.7292 30.0781 42.627 29.9252 42.4983 29.7964C42.3695 29.6676 42.2166 29.5655 42.0483 29.4958C41.8801 29.4261 41.6997 29.3902 41.5176 29.3902C41.3355 29.3902 41.1552 29.4261 40.9869 29.4958C40.8186 29.5655 40.6658 29.6676 40.537 29.7964Z" fill="#F58836" stroke="#F58836"/>
<path fill-rule="evenodd" clip-rule="evenodd" d="M33.9996 2C16.3549 2 2 16.3549 2 34.0004C2 51.6459 16.3549 66 33.9996 66C51.6443 66 66 51.6451 66 34.0004C66 16.3557 51.6443 2 33.9996 2ZM33.9996 63.226C17.8841 63.226 4.77241 50.1151 4.77241 33.9996C4.77241 17.8841 17.8833 4.77241 33.9996 4.77241C50.1159 4.77241 63.226 17.8841 63.226 33.9996C63.226 50.1151 50.1151 63.226 33.9996 63.226Z" fill="#F58836" stroke="#F58836" stroke-width="3"/>
</svg>
