<svg width="68" height="68" viewBox="0 0 68 68" fill="none" xmlns="http://www.w3.org/2000/svg">
<path fill-rule="evenodd" clip-rule="evenodd" d="M65.0086 27.0968H57.7544C56.6104 23.0698 54.4678 19.3969 51.5254 16.419C48.583 13.4411 44.936 11.2546 40.923 10.0625V3.02743C40.923 2.45962 40.4634 2 39.8955 2H28.1419C27.5741 2 27.1145 2.45962 27.1145 3.02743V9.94157C23.0062 11.0763 19.2599 13.2512 16.2375 16.2563C13.215 19.2614 11.0186 22.9951 9.86026 27.0968H3.02743C2.45962 27.0968 2 27.5564 2 28.1243V39.8772C2 40.445 2.45962 40.9046 3.02743 40.9046H9.90056C11.0726 44.9357 13.2464 48.6042 16.2194 51.5681C19.1924 54.5319 22.8677 56.6945 26.9024 57.8541V64.9726C26.9024 65.5404 27.362 66 27.9298 66H39.6841C40.2519 66 40.7116 65.5404 40.7116 64.9726V57.8541C44.7466 56.6954 48.4223 54.5331 51.3952 51.5689C54.3681 48.6048 56.5414 44.9355 57.7119 40.9039H65.0086C65.5764 40.9039 66.0361 40.4443 66.0361 39.8764V28.1243C66.0361 27.5564 65.5764 27.0968 65.0086 27.0968ZM55.6182 27.0968H53.2522C52.6844 27.0968 52.2247 27.5564 52.2247 28.1243V32.9715H40.9216V28.1243C40.9216 27.5564 40.4619 27.0968 39.8941 27.0968H34.8347V15.8064H39.8963C40.4641 15.8064 40.9237 15.3467 40.9237 14.7789V12.2065C44.3832 13.3363 47.5222 15.2774 50.0785 17.8678C52.6348 20.4582 54.5343 23.6226 55.6182 27.0968ZM33.8271 38.849C33.82 38.849 33.8137 38.8469 33.8066 38.8469C33.7995 38.8469 33.7932 38.849 33.7861 38.849H29.1672V29.1517H38.866V38.849H33.8271ZM29.1694 4.05487H38.8681V13.7515H29.1694V4.05487ZM27.1145 12.0742V14.7789C27.1145 15.3467 27.5741 15.8064 28.1419 15.8064H32.7792V27.0968H28.1398C27.572 27.0968 27.1124 27.5564 27.1124 28.1243V32.9715H15.8092V28.1243C15.8092 27.5564 15.3496 27.0968 14.7818 27.0968H11.9964C13.0974 23.5483 15.0511 20.3236 17.6865 17.7047C20.322 15.0859 23.5591 13.1527 27.1145 12.0742ZM4.05487 29.1517H13.7543V38.849H4.05487V29.1517ZM12.0403 40.9046H14.7818C15.3496 40.9046 15.8092 40.445 15.8092 39.8772V35.0271H27.1124V39.8772C27.1124 40.445 27.572 40.9046 28.1398 40.9046H32.7792V52.1915H27.9298C27.362 52.1915 26.9024 52.6511 26.9024 53.219V55.7158C23.4208 54.6163 20.2539 52.6973 17.6677 50.12C15.0816 47.5427 13.1517 44.3824 12.0403 40.9046ZM38.6567 63.9451H28.9572V54.2464H38.6567V63.9451ZM40.7116 55.7165V53.2182C40.7116 52.6504 40.2519 52.1908 39.6841 52.1908H34.8347V40.9046H39.8941C40.4619 40.9046 40.9216 40.445 40.9216 39.8772V35.0271H52.2247V39.8772C52.2247 40.445 52.6844 40.9046 53.2522 40.9046H55.5722C54.4622 44.383 52.533 47.544 49.947 50.1216C47.3609 52.6991 44.1936 54.6179 40.7116 55.7165ZM63.9812 38.849H54.2796V29.1517H63.9812V38.849Z" fill="#F58836" stroke="#F58836" stroke-width="3"/>
</svg>
