<svg width="73" height="97" viewBox="0 0 73 97" fill="none" xmlns="http://www.w3.org/2000/svg">
<path fill-rule="evenodd" clip-rule="evenodd" d="M57.5762 38.27L37.1162 23.91C36.8621 23.7292 36.558 23.632 36.2462 23.632C35.9343 23.632 35.6302 23.7292 35.3762 23.91L15.4262 38.28C15.1672 38.4652 14.9739 38.728 14.8743 39.0304C14.7746 39.3327 14.7737 39.6589 14.8717 39.9618C14.9697 40.2647 15.1615 40.5285 15.4194 40.7152C15.6772 40.9018 15.9878 41.0016 16.3062 41H19.5062V68.5C19.5062 68.8979 19.6642 69.2794 19.9455 69.5607C20.2268 69.842 20.6083 70 21.0062 70H52.0062C52.404 70 52.7855 69.842 53.0668 69.5607C53.3481 69.2794 53.5062 68.8979 53.5062 68.5V41H56.7162C57.0355 41.0003 57.3466 40.8987 57.6041 40.71C57.8617 40.5213 58.0524 40.2553 58.1483 39.9507C58.2442 39.6462 58.2405 39.3189 58.1376 39.0166C58.0347 38.7144 57.838 38.4528 57.5762 38.27ZM50.5062 39.5V67H22.5062V39.5C22.5062 39.1022 22.3481 38.7207 22.0668 38.4394C21.7855 38.1581 21.404 38 21.0062 38H20.9562L36.2662 27L51.9662 38C51.5753 38.0105 51.204 38.1731 50.9313 38.4533C50.6585 38.7335 50.506 39.109 50.5062 39.5Z" fill="#F58836" stroke="#F58836" stroke-width="3"/>
<path fill-rule="evenodd" clip-rule="evenodd" d="M29.5059 44.5V56.5C29.5059 56.8978 29.6639 57.2794 29.9452 57.5607C30.2265 57.842 30.608 58 31.0059 58H43.0059C43.4037 58 43.7852 57.842 44.0665 57.5607C44.3478 57.2794 44.5059 56.8978 44.5059 56.5V44.5C44.5059 44.1022 44.3478 43.7206 44.0665 43.4393C43.7852 43.158 43.4037 43 43.0059 43H31.0059C30.608 43 30.2265 43.158 29.9452 43.4393C29.6639 43.7206 29.5059 44.1022 29.5059 44.5ZM32.5059 46H41.5059V55H32.5059V46Z" fill="#F58836" stroke="#F58836" stroke-width="3"/>
<path fill-rule="evenodd" clip-rule="evenodd" d="M70.7656 20.57C70.7615 20.3686 70.7169 20.17 70.6345 19.9862C70.552 19.8023 70.4333 19.637 70.2856 19.5C70.1377 19.364 69.9644 19.2585 69.7756 19.1899C69.5868 19.1212 69.3862 19.0907 69.1856 19.1C44.4156 20.51 38.4356 3.74001 38.1956 3.00001C38.0918 2.70663 37.8994 2.45276 37.645 2.27359C37.3906 2.09442 37.0867 1.99881 36.7756 2.00001H36.2356C35.9247 2.00027 35.6215 2.09645 35.3674 2.27543C35.1133 2.4544 34.9205 2.70744 34.8156 3.00001C34.5756 3.71001 28.5756 20.49 3.81556 19.09C3.61527 19.0793 3.41486 19.1088 3.22618 19.1768C3.0375 19.2449 2.86439 19.3501 2.71708 19.4862C2.56977 19.6223 2.45125 19.7866 2.36855 19.9693C2.28584 20.152 2.24062 20.3495 2.23556 20.55C2.23556 21.44 1.70556 42.48 2.23556 49.71C3.37556 65 8.13555 82.4 34.8256 94.86C35.038 94.9596 35.271 95.0075 35.5056 95H37.5056C37.7233 94.9999 37.9383 94.9521 38.1356 94.86C64.8756 82.4 69.6356 65 70.7656 49.73C71.2956 42.5 70.7856 21.46 70.7656 20.57ZM67.7656 49.5C66.7056 63.9 62.2356 80.2 37.2156 92H35.7956C10.7956 80.2 6.30556 63.9 5.23556 49.51C4.79556 43.51 5.09556 27.25 5.23556 22.18H6.68556C25.6856 22.18 33.8056 11.43 36.5356 6.44001C39.3256 11.55 47.7356 22.71 67.8356 22.16C67.9156 27.24 68.2156 43.53 67.7756 49.5H67.7656Z" fill="#F58836" stroke="#F58836" stroke-width="3"/>
</svg>
