<svg width="76" height="100" viewBox="0 0 76 100" fill="none" xmlns="http://www.w3.org/2000/svg">
<path fill-rule="evenodd" clip-rule="evenodd" d="M67.7 10.3H51.8V3.5C51.8 2.7 51.1 2 50.3 2H26.6C25.8 2 25.1 2.7 25.1 3.5V10.3H8.3C4.8 10.3 2 13.1 2 16.6V92C2 95.5 4.8 98.3 8.3 98.3H67.8C71.3 98.3 74.1 95.5 74.1 92V16.6C74 13.1 71.2 10.3 67.7 10.3ZM26.6 29.7H50.3C51.1 29.7 51.8 29 51.8 28.2V21.7H62.3V86.4H13.7V21.8H25.1V28.2C25.1 29.1 25.8 29.7 26.6 29.7ZM48.8 5V26.7H28.1V5H48.8ZM71 91.9C71 93.7 69.5 95.2 67.7 95.2H8.3C6.5 95.2 5 93.7 5 91.9V16.6C5 14.8 6.5 13.3 8.3 13.3H25.1V18.8H12.2C11.4 18.8 10.7 19.5 10.7 20.3V88C10.7 88.8 11.4 89.5 12.2 89.5H63.8C64.6 89.5 65.3 88.8 65.3 88V20.3C65.3 19.5 64.6 18.8 63.8 18.8H51.8V13.3H67.7C69.5 13.3 71 14.8 71 16.6V91.9Z" fill="#F58836" stroke="#F58836" stroke-width="3"/>
<path fill-rule="evenodd" clip-rule="evenodd" d="M17.4004 46.6001C17.4004 47.4001 18.1004 48.1001 18.9004 48.1001H57.4004C58.2004 48.1001 58.9004 47.4001 58.9004 46.6001C58.9004 45.8001 58.2004 45.1001 57.4004 45.1001H18.9004C18.1004 45.1001 17.4004 45.8001 17.4004 46.6001ZM57.4004 55.6001H18.9004C18.1004 55.6001 17.4004 56.3001 17.4004 57.1001C17.4004 57.9001 18.1004 58.6001 18.9004 58.6001H57.4004C58.2004 58.6001 58.9004 57.9001 58.9004 57.1001C58.9004 56.3001 58.2004 55.6001 57.4004 55.6001ZM57.4004 66.6001H18.9004C18.1004 66.6001 17.4004 67.3001 17.4004 68.1001C17.4004 68.9001 18.1004 69.6001 18.9004 69.6001H57.4004C58.2004 69.6001 58.9004 68.9001 58.9004 68.1001C58.9004 67.3001 58.2004 66.6001 57.4004 66.6001Z" fill="#F58836" stroke="#F58836" stroke-width="3"/>
</svg>
