<svg width="90" height="79" viewBox="0 0 90 79" fill="none" xmlns="http://www.w3.org/2000/svg">
<path fill-rule="evenodd" clip-rule="evenodd" d="M61.4336 39.5002C61.4336 39.1024 61.2756 38.7209 60.9943 38.4396C60.7129 38.1583 60.3314 38.0002 59.9336 38.0002H46.4336V17.5002C46.4336 17.1024 46.2756 16.7209 45.9943 16.4396C45.713 16.1583 45.3314 16.0002 44.9336 16.0002C44.5358 16.0002 44.1542 16.1583 43.8729 16.4396C43.5916 16.7209 43.4336 17.1024 43.4336 17.5002V39.5002C43.4336 39.8981 43.5916 40.2796 43.8729 40.5609C44.1542 40.8422 44.5358 41.0002 44.9336 41.0002H59.9336C60.3314 41.0002 60.7129 40.8422 60.9943 40.5609C61.2756 40.2796 61.4336 39.8981 61.4336 39.5002Z" fill="#F58836" stroke="#F58836" stroke-width="3"/>
<path fill-rule="evenodd" clip-rule="evenodd" d="M9.70286 33.3102C9.928 33.3093 10.1501 33.2581 10.3529 33.1602L22.9729 27.0002C23.3005 26.8099 23.544 26.5027 23.6545 26.1403C23.7649 25.7778 23.7341 25.387 23.5682 25.0463C23.4023 24.7057 23.1136 24.4404 22.7602 24.3039C22.4067 24.1673 22.0147 24.1696 21.6629 24.3102L12.0729 29.0002C14.3112 22.0151 18.717 15.9249 24.6509 11.6132C30.5848 7.30146 37.7382 4.99259 45.0731 5.02157C52.408 5.05055 59.543 7.41586 65.4426 11.7743C71.3423 16.1328 75.6998 22.2576 77.8829 29.2602C78.2636 30.4882 78.5741 31.7369 78.8129 33.0002C78.8817 33.34 79.0654 33.6458 79.3331 33.8661C79.6008 34.0864 79.9362 34.2079 80.2829 34.2102H80.5729C80.9618 34.1304 81.304 33.9015 81.5264 33.5726C81.7488 33.2437 81.8337 32.8409 81.7629 32.4502C81.5066 31.0988 81.1727 29.7632 80.7629 28.4502C78.4264 20.7762 73.6795 14.0592 67.2257 9.29492C60.7718 4.53065 52.9547 1.9727 44.9329 2.00022C37.0648 2.02857 29.4027 4.51794 23.0205 9.11948C16.6382 13.721 11.8556 20.2041 9.34286 27.6602L4.89286 18.5402C4.81633 18.3488 4.70115 18.1751 4.55451 18.0302C4.40787 17.8852 4.23292 17.772 4.04058 17.6977C3.84825 17.6234 3.64265 17.5896 3.43664 17.5983C3.23064 17.607 3.02863 17.6581 2.84325 17.7484C2.65787 17.8386 2.4931 17.9662 2.35921 18.123C2.22533 18.2798 2.12522 18.4625 2.06512 18.6598C2.00503 18.857 1.98624 19.0645 2.00994 19.2693C2.03364 19.4742 2.09931 19.6719 2.20286 19.8502L8.35286 32.4702C8.47656 32.7227 8.66871 32.9353 8.90741 33.0838C9.1461 33.2323 9.42173 33.3108 9.70286 33.3102ZM87.8229 60.0002L81.6629 47.3402C81.4883 46.9843 81.18 46.7119 80.8052 46.5826C80.4305 46.4533 80.0198 46.4776 79.6629 46.6502L67.0429 52.8002C66.8656 52.8869 66.7071 53.0076 66.5765 53.1556C66.4459 53.3035 66.3456 53.4757 66.2816 53.6623C66.2175 53.849 66.1908 54.0464 66.2031 54.2434C66.2153 54.4403 66.2662 54.6329 66.3529 54.8102C66.4395 54.9875 66.5603 55.146 66.7082 55.2766C66.8561 55.4072 67.0283 55.5074 67.215 55.5715C67.4016 55.6356 67.599 55.6623 67.796 55.65C67.993 55.6378 68.1856 55.5869 68.3629 55.5002L77.4329 51.0702C74.8984 58.2101 70.0841 64.3171 63.7333 68.4484C57.3825 72.5798 49.8483 74.5057 42.2939 73.9289C34.7396 73.3521 27.5851 70.3046 21.9352 65.2569C16.2852 60.2093 12.454 53.4421 11.0329 46.0002C10.9961 45.8032 10.9209 45.6154 10.8115 45.4475C10.7022 45.2796 10.5608 45.1349 10.3955 45.0216C10.2302 44.9083 10.0443 44.8287 9.8482 44.7873C9.65214 44.7458 9.44984 44.7435 9.25286 44.7802C9.05588 44.817 8.86807 44.8922 8.70015 45.0016C8.53223 45.1109 8.3875 45.2523 8.27421 45.4175C8.16092 45.5828 8.0813 45.7688 8.03989 45.9649C7.99848 46.1609 7.99609 46.3632 8.03286 46.5602C9.56529 54.7129 13.757 62.1276 19.9523 67.6443C26.1475 73.1609 33.9967 76.4683 42.2718 77.049C50.5469 77.6296 58.7811 75.4507 65.686 70.8532C72.5909 66.2557 77.777 59.499 80.4329 51.6402L85.1329 61.2702C85.2542 61.5253 85.4455 61.7406 85.6845 61.8911C85.9235 62.0416 86.2004 62.1211 86.4829 62.1202C86.7093 62.1206 86.9325 62.0657 87.1329 61.9602C87.4787 61.7858 87.7436 61.4844 87.8722 61.119C88.0008 60.7537 87.9831 60.3528 87.8229 60.0002Z" fill="#F58836" stroke="#F58836" stroke-width="3"/>
<path fill-rule="evenodd" clip-rule="evenodd" d="M43.4341 61.5002V68.5002C43.4341 68.8981 43.5921 69.2796 43.8734 69.5609C44.1547 69.8422 44.5362 70.0002 44.9341 70.0002C45.3319 70.0002 45.7134 69.8422 45.9947 69.5609C46.276 69.2796 46.4341 68.8981 46.4341 68.5002V61.5002C46.4341 61.1024 46.276 60.7209 45.9947 60.4396C45.7134 60.1583 45.3319 60.0002 44.9341 60.0002C44.5362 60.0002 44.1547 60.1583 43.8734 60.4396C43.5921 60.7209 43.4341 61.1024 43.4341 61.5002ZM28.3441 53.4602L23.3941 58.4602C23.1441 58.7488 23.0127 59.1214 23.0264 59.5029C23.04 59.8845 23.1977 60.2467 23.4677 60.5166C23.7376 60.7866 24.0998 60.9443 24.4814 60.9579C24.8629 60.9716 25.2355 60.8402 25.5241 60.5902L30.4741 55.5902C30.7241 55.3017 30.8554 54.9291 30.8418 54.5476C30.8281 54.166 30.6704 53.8038 30.4005 53.5338C30.1305 53.2639 29.7683 53.1062 29.3867 53.0925C29.0052 53.0789 28.6326 53.2103 28.3441 53.4602Z" fill="#F58836" stroke="#F58836" stroke-width="3"/>
</svg>
