<svg width="97" height="66" viewBox="0 0 97 66" fill="none" xmlns="http://www.w3.org/2000/svg">
<path fill-rule="evenodd" clip-rule="evenodd" d="M40.46 56.0209C48.135 56.0209 54.38 49.7759 54.38 42.1009C54.38 34.4259 48.135 28.1809 40.46 28.1809C32.785 28.1809 26.54 34.4259 26.54 42.1009C26.54 49.7759 32.785 56.0209 40.46 56.0209ZM40.46 31.1809C46.481 31.1809 51.38 36.0789 51.38 42.1009C51.38 48.1229 46.482 53.0209 40.46 53.0209C34.438 53.0209 29.54 48.1229 29.54 42.1009C29.54 36.0789 34.438 31.1809 40.46 31.1809ZM9.66602 29.6809H12.666V54.5209H9.66602V29.6809ZM67.783 29.6809H70.783V54.5209H67.783V29.6809Z" fill="#F58836" stroke="#F58836" stroke-width="3"/>
<path fill-rule="evenodd" clip-rule="evenodd" d="M95.365 2H19.116V10.898H10.915V20.624H2V63.578H78.249V53.852H87.164V44.954H95.364L95.365 2ZM75.249 60.578H5V23.624H75.249V60.578ZM84.164 50.853H78.249V20.624H13.915V13.898H84.165L84.164 50.853ZM92.365 41.954H87.165V10.898H22.116V5H92.365V41.954Z" fill="#F58836" stroke="#F58836" stroke-width="3"/>
</svg>
