<svg width="123" height="121" viewBox="0 0 123 121" fill="none" xmlns="http://www.w3.org/2000/svg">
<path d="M85.2567 8.06208L80.7307 15.928L76.1783 8.04696C73.0712 2.6678 64.7274 7.48278 67.8345 12.8619L75.1689 25.5592L70.9669 32.8211C69.6632 35.0468 67.2873 36.4178 64.7091 36.4323L64.0358 36.4241L64.0309 46.0454L64.7041 46.0536C67.2945 46.0601 69.6757 47.4381 70.9655 49.671L75.1325 56.8849C76.4199 59.1137 76.4352 61.8848 75.1347 64.1114L70.9604 71.3296C70.33 72.4308 69.4186 73.3453 68.3193 73.9796C67.22 74.614 65.9721 74.9458 64.7026 74.9408L64.0415 74.9534L64.0365 84.5748L64.7098 84.583C67.288 84.5686 69.6692 85.9466 70.9698 88.1983L75.1608 95.4538L67.827 108.137C64.7309 113.51 73.0818 118.337 76.1658 112.943L80.7249 105.086L85.2651 112.947C88.3722 118.326 96.7161 113.511 93.609 108.132L89.0685 100.271L98.1538 100.255C104.359 100.26 104.364 90.6386 98.1588 90.6333L83.5035 90.6368L79.3124 83.3812C78.0117 81.1295 78.0076 78.3825 79.31 76.1547L83.4845 68.9365C84.1149 67.8353 85.0263 66.9208 86.1256 66.2865C87.2249 65.6521 88.4728 65.3205 89.7423 65.3253L98.1374 65.3178L105.46 77.9943C108.567 83.3734 116.911 78.5585 113.803 73.1793L109.263 65.3192L118.33 65.3133C124.554 65.3077 124.558 55.6864 118.334 55.692L109.256 55.6768L113.794 47.8318C116.911 42.447 108.56 37.6197 105.443 43.0045L98.1302 55.6756L89.7351 55.6831C88.4657 55.685 87.2181 55.3517 86.1188 54.7169C85.0194 54.082 84.1074 53.1682 83.4749 52.0678L79.3082 44.8539C78.0194 42.6231 78.0129 39.8719 79.3046 37.6254L83.5086 30.3623L98.1439 30.3678C104.368 30.3621 104.373 20.7406 98.1488 20.7463L89.0704 20.7311L93.5965 12.8652C96.7145 7.48255 88.3756 2.67613 85.2567 8.06208ZM52.2632 11.0338L50.2217 3.45511C48.6086 -2.56375 39.3197 -0.0639159 40.9197 5.93201L42.9381 13.524C44.5721 19.5309 53.8644 17.0319 52.2632 11.0338ZM21.8087 92.4074L16.2497 97.9505C11.8626 102.345 18.6598 109.153 23.0469 104.759L28.6257 99.2013C33.014 94.8092 26.1959 88.0132 21.8087 92.4074ZM3.4406 70.8158C-2.56031 72.4161 -0.0601506 81.7039 5.94075 80.1035L13.5364 78.086C19.5232 76.466 17.0438 67.1662 11.045 68.7654L3.4406 70.8158ZM11.0329 52.229C17.0541 53.8416 19.5491 44.5346 13.5279 42.9221L5.93733 40.9086C-0.0609119 39.2827 -2.5559 48.5896 3.44233 50.2155L11.0329 52.229ZM42.9473 107.48L40.9108 115.077C39.3072 121.059 48.6186 123.553 50.2223 117.571L52.2598 109.971C53.8723 103.956 44.5607 101.462 42.9473 107.48ZM28.6077 21.7937L23.0618 16.2372C18.6668 11.8543 11.8542 18.6462 16.2626 23.0521L21.8105 28.6073C26.2048 32.9934 33.0161 26.1995 28.6077 21.7937ZM25.0284 60.6653C25.1713 77.9575 38.5672 93.3003 55.7144 95.6369L55.7239 25.3548C38.4482 27.7073 24.9089 43.2209 25.0284 60.6653Z" fill="#F58836"/>
</svg>
