<svg width="113" height="121" viewBox="0 0 113 121" fill="none" xmlns="http://www.w3.org/2000/svg">
<g clip-path="url(#clip0_28_167)">
<mask id="mask0_28_167" style="mask-type:luminance" maskUnits="userSpaceOnUse" x="0" y="0" width="113" height="121">
<path d="M0 0L0 121L113 121V0L0 0Z" fill="white"/>
</mask>
<g mask="url(#mask0_28_167)">
<path d="M33.0377 47.1405V21.1265C33.0377 20.4869 33.1893 19.86 33.4756 19.3159C33.7619 18.7719 34.1715 18.3322 34.6586 18.0462L58.1171 4.27129C60.0667 3.12648 62.3607 4.79154 62.3607 7.35147V117.552C62.3607 120.112 60.0667 121.777 58.1171 120.632L34.6586 106.857C34.1715 106.571 33.7619 106.131 33.4756 105.587C33.1893 105.043 33.0377 104.416 33.0377 103.777V102.512C36.5567 102.223 40.0594 100.891 43.4284 98.5171C47.5945 95.5815 48.9453 89.2354 46.4456 84.3426C45.7736 83.0229 44.8583 81.8969 43.7671 81.0472C47.6659 78.0133 48.8761 71.8813 46.4456 67.124C45.7736 65.8042 44.8583 64.6781 43.7671 63.8286C47.6659 60.7945 48.8761 54.6625 46.4456 49.9052C43.946 45.0124 38.5424 43.426 34.3763 46.3615C33.8998 46.6973 33.4591 46.9568 33.0377 47.1405ZM37.3937 69.4862C38.7823 68.5077 40.5834 69.0366 41.4167 70.6674C42.2499 72.2984 41.7994 74.4137 40.411 75.3923C34.5951 79.4903 28.5478 79.4903 22.732 75.3923C18.7735 72.6028 15.0463 72.6028 11.0878 75.3923C9.69919 76.3709 7.898 75.8419 7.06479 74.2112C6.23157 72.5801 6.68197 70.4647 8.07053 69.4862C13.8863 65.3881 19.9336 65.3881 25.7492 69.4862C29.708 72.2757 33.4352 72.2757 37.3937 69.4862ZM37.3937 86.705C38.7823 85.7264 40.5834 86.2554 41.4167 87.8862C42.2499 89.5172 41.7994 91.6325 40.411 92.6111C34.5951 96.7091 28.5478 96.7091 22.732 92.6111C18.7735 89.8216 15.0463 89.8216 11.0878 92.6111C9.69919 93.5897 7.898 93.0607 7.06479 91.4298C6.23157 89.7989 6.68197 87.6836 8.07053 86.705C13.8863 82.6069 19.9336 82.6069 25.7492 86.705C29.708 89.4945 33.4352 89.4945 37.3937 86.705ZM37.3937 52.2675C38.7823 51.2889 40.5834 51.8178 41.4167 53.4486C42.2499 55.0796 41.7994 57.1949 40.411 58.1735C34.5951 62.2715 28.5478 62.2715 22.732 58.1735C18.7735 55.3839 15.0463 55.3839 11.0878 58.1735C9.69919 59.1521 7.898 58.623 7.06479 56.9924C6.23157 55.3614 6.68197 53.2459 8.07053 52.2675C13.8863 48.1693 19.9336 48.1693 25.7492 52.2675C29.708 55.0569 33.4352 55.0569 37.3937 52.2675Z" fill="#F58836"/>
<path fill-rule="evenodd" clip-rule="evenodd" d="M33.0377 21.1265V47.1405C33.4591 46.957 33.8998 46.6973 34.3763 46.3615C35.014 45.9123 35.6805 45.569 36.3613 45.3272C40.1285 43.9889 44.3285 45.7613 46.4456 49.9052C48.269 53.4742 48.0433 57.8169 46.1705 61.0449C45.547 62.1196 44.7409 63.0706 43.7671 63.8286C44.715 64.5667 45.5303 65.5133 46.1686 66.6144C46.265 66.7808 46.3574 66.9507 46.4456 67.124C48.269 70.693 48.0433 75.0357 46.1705 78.2637C45.547 79.3382 44.7409 80.2894 43.7671 81.0472C44.715 81.7853 45.5303 82.7321 46.1686 83.8332C46.265 83.9996 46.3574 84.1695 46.4456 84.3426C48.9453 89.2354 47.5945 95.5815 43.4284 98.5171C40.0594 100.891 36.5567 102.223 33.0377 102.512V103.777C33.0377 104.132 33.0845 104.484 33.1752 104.819C33.2479 105.087 33.3485 105.346 33.4756 105.587C33.6219 105.865 33.8001 106.116 34.0045 106.332C34.2004 106.54 34.4202 106.717 34.6586 106.857L58.1171 120.632C60.0667 121.777 62.3607 120.112 62.3607 117.552V7.35148C62.3607 4.79154 60.0667 3.12648 58.1171 4.27129L34.6586 18.0462C34.1715 18.3322 33.7619 18.7719 33.4756 19.316C33.1893 19.86 33.0377 20.4869 33.0377 21.1265ZM37.3937 69.4862C38.7823 68.5077 40.5834 69.0366 41.4167 70.6674C42.2499 72.2984 41.7994 74.4137 40.411 75.3923C34.5951 79.4903 28.5478 79.4903 22.732 75.3923C18.7735 72.6028 15.0463 72.6028 11.0878 75.3923C9.69919 76.3709 7.898 75.8419 7.06479 74.2112C6.23157 72.5801 6.68197 70.4647 8.07053 69.4862C13.8863 65.3881 19.9336 65.3881 25.7492 69.4862C29.708 72.2757 33.4352 72.2757 37.3937 69.4862ZM9.37777 72.0453C9.37772 72.0455 9.37782 72.0453 9.37777 72.0453V72.0453ZM37.3937 86.705C38.7823 85.7264 40.5834 86.2554 41.4167 87.8862C42.2499 89.5172 41.7994 91.6325 40.411 92.6111C34.5951 96.7091 28.5478 96.7091 22.732 92.6111C18.7735 89.8216 15.0463 89.8216 11.0878 92.6111C9.69919 93.5897 7.898 93.0607 7.06479 91.4298C6.23157 89.7989 6.68197 87.6836 8.07053 86.705C13.8863 82.6069 19.9336 82.6069 25.7492 86.705C29.708 89.4945 33.4352 89.4945 37.3937 86.705ZM9.37777 89.2641C9.37772 89.2641 9.37782 89.2641 9.37777 89.2641V89.2641ZM39.0889 105.094L59.0373 116.808L59.0371 8.09494L36.3613 21.4103V41.2984C41.29 40.0571 46.5572 42.5373 49.2954 47.8969C51.9202 53.0344 51.4638 59.3338 48.557 63.8314C48.8229 64.2433 49.0699 64.6729 49.2968 65.1184C51.92 70.2553 51.4633 76.5532 48.557 81.0502C48.8227 81.4618 49.0696 81.891 49.2964 82.3362C52.7393 89.0771 50.8779 97.8197 45.1383 101.864M36.1449 21.5374C36.1444 21.5377 36.1454 21.5372 36.1449 21.5374V21.5374ZM39.0889 105.094C41.1533 104.328 43.1766 103.247 45.1383 101.864L39.0889 105.094ZM8.07053 52.2675C6.68197 53.2459 6.23157 55.3614 7.06479 56.9924C7.898 58.623 9.69919 59.1521 11.0878 58.1735C15.0463 55.3839 18.7735 55.3839 22.732 58.1735C28.5478 62.2715 34.5951 62.2715 40.411 58.1735C41.7994 57.1949 42.2499 55.0796 41.4167 53.4486C40.5834 51.8178 38.7823 51.2889 37.3937 52.2675C33.4352 55.0569 29.708 55.0569 25.7492 52.2675C19.9336 48.1693 13.8863 48.1693 8.07053 52.2675Z" fill="#F58836"/>
<path d="M66.4707 35.4309V17.2232C66.4707 16.5837 66.6223 15.9568 66.9086 15.4127C67.1948 14.8687 67.6045 14.429 68.0916 14.143L81.5796 4.27129C83.5292 3.12648 85.8232 4.79154 85.8232 7.35148V117.552C85.8232 120.112 83.5292 121.777 81.5796 120.632L68.0916 110.76C67.6046 110.474 67.1948 110.034 66.9086 109.49C66.6223 108.946 66.4707 108.32 66.4707 107.68V90.8025V35.4309Z" fill="#F58836"/>
<path d="M89.7344 35.4309V17.2232C89.7344 16.5837 89.886 15.9568 90.1723 15.4127C90.4585 14.8687 90.8681 14.429 91.3553 14.143L104.843 4.27129C106.793 3.12648 109.087 4.79154 109.087 7.35148V117.552C109.087 120.112 106.793 121.777 104.843 120.632L91.3553 110.76C90.8681 110.474 90.4585 110.034 90.1723 109.49C89.886 108.946 89.7344 108.32 89.7344 107.68V90.8025V35.4309Z" fill="#F58836"/>
<path d="M3.27156 34.4089C3.255 34.3257 3.2294 34.2497 3.21438 34.1665C2.80629 31.6081 3.05976 28.9649 3.94215 26.5771C5.84964 20.8281 11.5463 14.0032 13.0816 13.7822C13.3197 13.7479 13.5613 13.781 13.7864 13.8785C14.0114 13.976 14.2134 14.1353 14.3755 14.343C14.5376 14.5506 14.6551 14.8008 14.7183 15.0725C14.7815 15.3443 14.7886 15.6299 14.7389 15.9055C14.3004 18.3332 15.0297 20.446 17.2549 23.1957C17.7868 23.8647 18.2897 24.5645 18.7618 25.2927C19.6028 26.4782 20.2237 27.8569 20.5848 29.3405C20.9461 30.8241 21.0393 32.3798 20.859 33.9082C20.8499 33.986 20.8289 34.057 20.8184 34.1329C22.8511 31.5933 24.0128 28.2607 24.0805 24.7761C24.1239 19.7615 22.7846 14.8651 20.2625 10.8185C17.8793 6.9147 15.1793 3.29155 12.2004 0L12.1869 0.0956113C11.5798 3.35209 10.216 6.34721 8.24698 8.74832C7.59158 9.6331 6.91501 10.5179 6.24014 11.4025C5.12068 12.8623 3.96365 14.3699 2.91501 15.8969C-1.10615 21.2311 -0.949126 29.303 3.27513 34.4159L3.27156 34.4089Z" fill="#F58836"/>
<path d="M14.4121 28.3825C13.1993 27.023 12.3146 25.3107 11.8481 23.4194C10.1793 25.3596 8.82612 27.6415 7.85523 30.1526C7.32856 31.5306 7.16823 33.0633 7.39525 34.5501C7.56145 35.4574 7.92577 36.2984 8.45241 36.9903C8.97905 37.6823 9.64989 38.2014 10.3991 38.4967C11.2772 38.7044 12.1773 38.7515 13.0677 38.6364C13.2864 38.6058 13.5016 38.5569 13.7156 38.508C14.4634 38.214 15.1292 37.6868 15.6418 36.9829C16.1544 36.2789 16.4943 35.4245 16.6255 34.5113C16.7205 33.6754 16.6635 32.8253 16.4587 32.017C16.2537 31.2088 15.9055 30.4606 15.4368 29.8218C15.1163 29.3219 14.7743 28.8414 14.4121 28.3825Z" fill="#F58836"/>
</g>
</g>
<defs>
<clipPath id="clip0_28_167">
<rect width="113" height="121" fill="white"/>
</clipPath>
</defs>
</svg>
