<svg width="51" height="51" viewBox="0 0 51 51" fill="none" xmlns="http://www.w3.org/2000/svg">
<rect width="51" height="51" rx="25.5" fill="#F58836"/>
<rect width="51" height="51" rx="25.5" stroke="black"/>
<path d="M10.0312 40.3357L12.2177 32.3959C10.866 30.0654 10.1568 27.4262 10.1642 24.7281C10.1642 16.2737 17.0782 9.3999 25.5656 9.3999C29.6874 9.3999 33.5581 10.9952 36.4611 13.8918C39.3715 16.7883 40.9744 20.6406 40.967 24.7355C40.967 33.1899 34.053 40.0637 25.5582 40.0637H25.5509C22.9729 40.0637 20.4392 39.4168 18.1862 38.1964L10.0312 40.3357ZM18.5777 35.4248L19.0431 35.7042C21.008 36.8657 23.261 37.4759 25.5582 37.4833H25.5656C32.62 37.4833 38.3669 31.771 38.3669 24.7428C38.3669 21.339 37.0373 18.141 34.6218 15.7297C32.2063 13.3183 28.9857 11.995 25.5656 11.995C18.5113 11.9877 12.7644 17.6999 12.7644 24.7281C12.7644 27.1321 13.4366 29.4773 14.7218 31.5064L15.0247 31.9916L13.732 36.6893L18.5777 35.4248Z" fill="white"/>
<path d="M10.5703 39.799L12.6829 32.1312C11.3755 29.889 10.6885 27.3379 10.6885 24.7354C10.6959 16.5751 17.3661 9.93652 25.5655 9.93652C29.5469 9.93652 33.2772 11.4804 36.0842 14.274C38.8912 17.0676 40.435 20.7876 40.435 24.7428C40.435 32.9031 33.7574 39.5417 25.5655 39.5417H25.5581C23.0687 39.5417 20.6237 38.9168 18.452 37.7405L10.5703 39.799Z" fill="#F58836"/>
<path d="M10.0312 40.3357L12.2177 32.3959C10.866 30.0654 10.1568 27.4262 10.1642 24.7281C10.1642 16.2737 17.0782 9.3999 25.5656 9.3999C29.6874 9.3999 33.5581 10.9952 36.4611 13.8918C39.3715 16.7883 40.9744 20.6406 40.967 24.7355C40.967 33.1899 34.053 40.0637 25.5582 40.0637H25.5509C22.9729 40.0637 20.4392 39.4168 18.1862 38.1964L10.0312 40.3357ZM18.5777 35.4248L19.0431 35.7042C21.008 36.8657 23.261 37.4759 25.5582 37.4833H25.5656C32.62 37.4833 38.3669 31.771 38.3669 24.7428C38.3669 21.339 37.0373 18.141 34.6218 15.7297C32.2063 13.3183 28.9857 11.995 25.5656 11.995C18.5113 11.9877 12.7644 17.6999 12.7644 24.7281C12.7644 27.1321 13.4366 29.4773 14.7218 31.5064L15.0247 31.9916L13.732 36.6893L18.5777 35.4248Z" fill="url(#paint0_linear_10_39)"/>
<path fill-rule="evenodd" clip-rule="evenodd" d="M21.7163 18.3174C21.4282 17.6778 21.1253 17.6631 20.852 17.6558C20.6304 17.6484 20.3719 17.6484 20.1133 17.6484C19.8548 17.6484 19.4411 17.744 19.0866 18.1263C18.732 18.5086 17.7422 19.4349 17.7422 21.3243C17.7422 23.2063 19.1235 25.0295 19.3156 25.2868C19.5076 25.5441 21.9822 29.5361 25.8898 31.0726C29.14 32.3518 29.8048 32.0945 30.5065 32.0283C31.2083 31.9621 32.7817 31.102 33.1067 30.2051C33.4243 29.3082 33.4243 28.5436 33.3283 28.3819C33.2322 28.2201 32.9737 28.1246 32.5896 27.9334C32.2055 27.7423 30.3145 26.816 29.9599 26.6836C29.6053 26.5587 29.3468 26.4925 29.0957 26.8748C28.8371 27.2571 28.0984 28.1172 27.8768 28.3745C27.6552 28.6318 27.4262 28.6612 27.0421 28.4701C26.658 28.279 25.417 27.8746 23.9471 26.566C22.8021 25.5515 22.0265 24.2943 21.8049 23.9121C21.5833 23.5298 21.7828 23.3239 21.9748 23.1328C22.1447 22.9637 22.3589 22.6843 22.551 22.4638C22.743 22.2432 22.8095 22.0815 22.9351 21.8242C23.0607 21.5669 23.0016 21.3463 22.9055 21.1552C22.8095 20.9714 22.0561 19.0747 21.7163 18.3174Z" fill="white"/>
<defs>
<linearGradient id="paint0_linear_10_39" x1="25.5022" y1="40.3328" x2="25.5022" y2="9.3999" gradientUnits="userSpaceOnUse">
<stop stop-color="#F9F9F9"/>
<stop offset="1" stop-color="white"/>
</linearGradient>
</defs>
</svg>
